<svg width="140" height="48" viewBox="0 0 140 48" fill="none" xmlns="http://www.w3.org/2000/svg">
<g clip-path="url(#clip0_1187_1338)">
<path d="M0.138598 23.9887C0.138598 20.4854 3.05686 18.0938 7.45163 18.0938C8.94526 18.099 10.4224 18.3969 11.7943 18.9696L11.1342 20.7381C10.0115 20.2349 8.79255 19.9652 7.55586 19.9465C4.58548 19.9465 3.05686 21.4623 3.05686 23.9887C2.99411 24.4889 3.0387 24.9963 3.18782 25.479C3.33695 25.9616 3.58739 26.4092 3.92342 26.7935C4.25945 27.1779 4.67382 27.4907 5.14048 27.7123C5.60715 27.934 6.11605 28.0597 6.63521 28.0816C7.47841 28.1072 8.30406 27.8446 8.96774 27.3396C9.63141 26.8347 10.0908 26.1196 10.2657 25.3193H6.96526V23.4161H12.9755V29.6985H11.03V26.852C10.6758 27.8022 10.0141 28.6158 9.14373 29.1713C8.27339 29.7268 7.24108 29.9944 6.20095 29.9343C5.39763 29.9389 4.60146 29.7877 3.85924 29.4897C3.11702 29.1917 2.44372 28.7529 1.87892 28.199C1.31413 27.645 0.869219 26.9872 0.570354 26.2642C0.271488 25.5412 0.124694 24.7676 0.138598 23.9887Z" fill="#030D0D"/>
<path d="M37.5719 24.8636C37.3605 26.4771 37.4488 28.1142 37.8325 29.6975H35.0532C34.7659 28.3807 34.6607 27.0327 34.7405 25.6889H18.3079V29.6975H15.876V18.2949H32.2044C35.7827 18.2949 37.7282 19.5245 37.7282 21.9667C37.7485 22.6004 37.5587 23.2238 37.1866 23.7452C36.8146 24.2666 36.2799 24.6586 35.6611 24.8636H37.5719ZM18.3079 20.0971V23.8531H31.9612C34.0804 23.8531 35.14 23.3141 35.14 21.933C35.14 20.5519 34.1673 20.0634 32.0307 20.0634L18.3079 20.0971Z" fill="#030D0D"/>
<path d="M40.2119 23.9885C40.2119 20.4178 43.1128 18.043 47.2991 18.043C51.4855 18.043 54.4037 20.4852 54.4037 23.9885C54.4037 27.4918 51.4681 29.934 47.2991 29.934C43.1302 29.934 40.2119 27.5592 40.2119 23.9885ZM51.7808 23.9885C51.7915 23.4293 51.6793 22.8743 51.4517 22.3603C51.2241 21.8464 50.8863 21.3853 50.4607 21.0077C50.0352 20.6301 49.5316 20.3447 48.9835 20.1704C48.4354 19.9961 47.8553 19.9369 47.2818 19.9967C46.7175 19.9612 46.1517 20.0383 45.6193 20.2233C45.087 20.4082 44.5995 20.6971 44.1869 21.072C43.7743 21.447 43.4454 21.9 43.2206 22.4031C42.9957 22.9062 42.8797 23.4486 42.8797 23.9969C42.8797 24.5452 42.9957 25.0877 43.2206 25.5908C43.4454 26.0939 43.7743 26.5469 44.1869 26.9218C44.5995 27.2967 45.087 27.5856 45.6193 27.7706C46.1517 27.9555 46.7175 28.0326 47.2818 27.9971C47.8568 28.0572 48.4384 27.9975 48.9877 27.8222C49.5371 27.6469 50.0415 27.36 50.4674 26.9806C50.8932 26.6011 51.2307 26.138 51.4572 25.622C51.6836 25.106 51.794 24.5491 51.7808 23.9885Z" fill="#030D0D"/>
<path d="M58.3823 18.2949L61.8564 26.969L65.3306 18.2949H67.7451L71.2192 26.8679L72.3309 23.4994H74.8323L72.8868 29.7312H69.6211L66.5986 21.4951L63.524 29.6975H60.2062L55.7246 18.2949H58.3823Z" fill="#030D0D"/>
<path d="M74.0507 18.2949H89.389L88.451 20.2655H82.3191V29.6975H79.8178V20.2655H73.3906L74.0507 18.2949Z" fill="#030D0D"/>
<path d="M95.4688 18.2949L100.888 29.6975H98.1612L97.0495 27.2216H90.7961L89.5975 29.7312H86.8877L92.3073 18.2949H95.4688ZM96.3199 25.3858L93.9402 19.8445L91.5083 25.3858H96.3199Z" fill="#030D0D"/>
<path d="M103.65 27.0371C105.009 27.7024 106.506 28.0594 108.028 28.0813C109.973 28.0813 111.015 27.5086 111.015 26.717C111.015 24.5612 103.251 25.0328 103.251 21.1926C103.251 19.2893 105.196 18.043 108.323 18.043C110.018 18.0451 111.696 18.3773 113.256 19.0199L112.561 20.8726C111.232 20.2989 109.795 19.9951 108.34 19.9799C106.603 19.9799 105.908 20.401 105.908 21.1589C105.908 23.4158 113.638 23.1632 113.638 26.8181C113.638 28.6708 111.588 29.9845 108.062 29.9845C106.305 29.986 104.569 29.6182 102.973 28.9066L103.65 27.0371Z" fill="#030D0D"/>
<path d="M119.023 18.2949V23.0951H130.922L136.237 18.2949H139.485L133.805 23.3478L139.972 29.647H136.828L132.155 24.8468H119.04V29.6638H116.521V18.2949H119.023Z" fill="#030D0D"/>
<path d="M47.3001 25.3706C48.1443 25.3706 48.8287 24.707 48.8287 23.8884C48.8287 23.0698 48.1443 22.4062 47.3001 22.4062C46.4559 22.4062 45.7715 23.0698 45.7715 23.8884C45.7715 24.707 46.4559 25.3706 47.3001 25.3706Z" fill="#030D0D"/>
</g>
<defs>
<clipPath id="clip0_1187_1338">
<rect width="140" height="12" fill="white" transform="translate(0 18)"/>
</clipPath>
</defs>
</svg>
