<svg width="8" height="5" viewBox="0 0 8 5" fill="none" xmlns="http://www.w3.org/2000/svg">
<path d="M7.30001 1.7001L4.70001 4.3001C4.60001 4.4001 4.49168 4.4751 4.37501 4.5251C4.25835 4.5751 4.13335 4.6001 4.00001 4.6001C3.86668 4.6001 3.74168 4.5751 3.62501 4.5251C3.50835 4.4751 3.40001 4.4001 3.30001 4.3001L0.700012 1.7001C0.383345 1.38343 0.312679 1.0211 0.488012 0.613097C0.662679 0.204431 0.975012 9.72748e-05 1.42501 9.72748e-05H6.57501C7.02501 9.72748e-05 7.33735 0.204431 7.51201 0.613097C7.68735 1.0211 7.61668 1.38343 7.30001 1.7001Z" fill="white"/>
</svg>
