<svg width="42" height="42" viewBox="0 0 42 42" fill="none" xmlns="http://www.w3.org/2000/svg">
<g id="317752_facebook_social media_social_icon" clip-path="url(#clip0_1203_16834)">
<g id="Group">
<path id="Vector" d="M21 42C32.598 42 42 32.598 42 21C42 9.40202 32.598 0 21 0C9.40202 0 0 9.40202 0 21C0 32.598 9.40202 42 21 42Z" fill="#121212"/>
<path id="f_2_" d="M22.7143 33V22.7778H26.1429L27 18.5185H22.7143V16.8148C22.7143 15.1111 23.5731 14.2593 25.2857 14.2593H27V10C26.1429 10 25.08 10 23.5714 10C20.4214 10 18.4286 12.4542 18.4286 15.963V18.5185H15V22.7778H18.4286V33H22.7143Z" fill="white"/>
</g>
</g>
<defs>
<clipPath id="clip0_1203_16834">
<rect width="42" height="42" fill="white"/>
</clipPath>
</defs>
</svg>
