<svg width="42" height="42" viewBox="0 0 42 42" fill="none" xmlns="http://www.w3.org/2000/svg">
<g id="6636566_instagram_social media_social network_icon" clip-path="url(#clip0_1203_16843)">
<g id="Group">
<path id="Vector" d="M21 0C32.55 0 42 9.45 42 21C42 32.55 32.55 42 21 42C9.45 42 0 32.55 0 21C0 9.45 9.45 0 21 0Z" fill="#121212"/>
<path id="Vector_2" d="M25.6269 11H16.1741C13.2886 11 11 13.4 11 16.4V25.6C11 28.5 13.2886 30.9 16.2736 31H25.7264C28.6119 31 31 28.6 31 25.6V16.4C30.9005 13.4 28.6119 11 25.6269 11ZM29.1095 25.5C29.1095 27.5 27.5174 29.2 25.4279 29.2H16.3731C14.3831 29.2 12.6915 27.5 12.791 25.5V16.5C12.791 14.5 14.3831 12.8 16.3731 12.8H25.4279C27.4179 12.8 29.1095 14.5 29.1095 16.5V25.5Z" fill="white"/>
<path id="Vector_3" d="M21.098 16.0031C18.3546 15.9051 16.0031 18.1593 16.0031 20.9035C15.9051 23.6478 18.1586 26 20.902 26C23.6454 26 25.9969 23.8438 25.9969 21.0995V21.0015C26.0949 18.2573 23.8414 16.0031 21.098 16.0031ZM21.098 24.2358C19.3344 24.2358 17.8647 22.8637 17.7667 21.0995C17.7667 19.3354 19.1384 17.8653 20.902 17.7672C22.6656 17.6692 24.1353 19.1394 24.2333 20.9035V21.0015C24.3313 22.7657 22.8616 24.2358 21.098 24.2358Z" fill="white"/>
<path id="Vector_4" d="M26 14C26.5455 14 27 14.4167 27 15C27 15.5833 26.5455 16 26 16C25.4545 16 25 15.5833 25 15C25 14.4167 25.4545 14 26 14Z" fill="white"/>
</g>
</g>
<defs>
<clipPath id="clip0_1203_16843">
<rect width="42" height="42" fill="white"/>
</clipPath>
</defs>
</svg>
