<svg width="24" height="25" viewBox="0 0 24 25" fill="none" xmlns="http://www.w3.org/2000/svg">
<g id="star">
<path id="Vector" d="M11.0061 5.10384C11.4127 4.28013 12.5873 4.28013 12.9939 5.10384L14.8324 8.82839C14.9937 9.15519 15.3053 9.38181 15.6659 9.43452L19.7791 10.0357C20.6878 10.1685 21.05 11.2856 20.3921 11.9264L17.4176 14.8236C17.1562 15.0782 17.0369 15.4452 17.0986 15.8049L17.8003 19.8965C17.9556 20.802 17.0051 21.4925 16.192 21.0649L12.5159 19.1316C12.1929 18.9618 11.8071 18.9618 11.4841 19.1316L7.80802 21.0649C6.99488 21.4925 6.04439 20.802 6.1997 19.8965L6.90145 15.8049C6.96314 15.4452 6.84381 15.0782 6.58238 14.8236L3.6079 11.9264C2.94997 11.2856 3.31217 10.1685 4.22094 10.0357L8.33405 9.43452C8.69467 9.38181 9.00633 9.15519 9.16764 8.82839L11.0061 5.10384Z" fill="#F9B043"/>
</g>
</svg>
