<svg width="26" height="26" viewBox="0 0 26 26" fill="none" xmlns="http://www.w3.org/2000/svg">
<g id="twitter (2) 1">
<path id="Vector" d="M10.9753 20.9999C18.1455 20.9999 22.0665 14.8448 22.0665 9.5075C22.0665 9.33268 22.0631 9.15859 22.0555 8.98546C22.8166 8.41527 23.4781 7.70373 24 6.89383C23.3016 7.21564 22.5498 7.432 21.7614 7.52988C22.5662 7.02963 23.1841 6.23863 23.4755 5.29569C22.7223 5.75837 21.8882 6.09452 21.0002 6.27608C20.2889 5.49097 19.2761 5 18.1547 5C16.0021 5 14.2563 6.80883 14.2563 9.03856C14.2563 9.35568 14.2906 9.66389 14.3574 9.95958C11.1176 9.79067 8.24457 8.18351 6.32216 5.73947C5.98752 6.33627 5.79441 7.02975 5.79441 7.76971C5.79441 9.17087 6.48262 10.4082 7.52906 11.1318C6.88953 11.1114 6.28881 10.9295 5.76362 10.6267C5.76304 10.6437 5.76304 10.6602 5.76304 10.6782C5.76304 12.6344 7.1067 14.2677 8.89061 14.6378C8.56294 14.7301 8.2182 14.7799 7.86265 14.7799C7.6119 14.7799 7.36743 14.7543 7.12993 14.707C7.62619 16.3119 9.06536 17.4797 10.7715 17.5125C9.4373 18.5961 7.75656 19.2415 5.92989 19.2415C5.61571 19.2415 5.30512 19.2228 5 19.1855C6.72523 20.3313 8.77383 21 10.9755 21" fill="white"/>
</g>
</svg>
